<?xml version="1.0" standalone="no"?>
<!DOCTYPE svg PUBLIC "-//W3C//DTD SVG 20010904//EN"
 "http://www.w3.org/TR/2001/REC-SVG-20010904/DTD/svg10.dtd">
<svg version="1.0" xmlns="http://www.w3.org/2000/svg"
 width="512.000000pt" height="512.000000pt" viewBox="0 0 512.000000 512.000000"
 preserveAspectRatio="xMidYMid meet">

<g transform="translate(0.000000,512.000000) scale(0.100000,-0.100000)"
fill="#000000" stroke="none">
<path d="M2453 5003 c-522 -566 -1092 -1312 -1405 -1838 -259 -436 -391 -759
-429 -1050 -30 -229 20 -585 119 -850 175 -470 554 -878 1007 -1083 283 -128
504 -176 815 -176 249 0 455 34 655 109 677 253 1148 819 1265 1520 42 251 37
460 -15 667 -133 519 -608 1289 -1351 2185 -245 295 -536 623 -554 623 -4 0
-52 -48 -107 -107z m253 -653 c761 -902 1251 -1669 1375 -2152 51 -202 29
-491 -58 -748 -77 -227 -189 -408 -361 -584 -234 -239 -525 -390 -862 -447
-97 -17 -383 -17 -480 0 -576 98 -1040 490 -1223 1031 -87 257 -109 546 -58
748 109 423 507 1078 1119 1842 149 187 397 479 403 477 4 -1 69 -76 145 -167z"/>
</g>
</svg>
