<svg width="32" height="32" viewBox="0 0 32 32" fill="none" xmlns="http://www.w3.org/2000/svg">
<path fill-rule="evenodd" clip-rule="evenodd" d="M20.0536 5.40176C21.4003 5.93776 21.8123 7.80442 22.3629 8.40442C22.9136 9.00442 23.7016 9.20842 24.1376 9.20842C26.4549 9.20842 28.3336 11.0871 28.3336 13.4031V21.1298C28.3336 24.2364 25.8136 26.7564 22.7069 26.7564H9.2936C6.1856 26.7564 3.66693 24.2364 3.66693 21.1298V13.4031C3.66693 11.0871 5.5456 9.20842 7.86293 9.20842C8.2976 9.20842 9.0856 9.00442 9.6376 8.40442C10.1883 7.80442 10.5989 5.93776 11.9456 5.40176C13.2936 4.86576 18.7069 4.86576 20.0536 5.40176Z" stroke="#8962F8" stroke-width="2" stroke-linecap="round" stroke-linejoin="round"/>
<path d="M23.3274 12.6667H23.3394" stroke="#8962F8" stroke-width="2" stroke-linecap="round" stroke-linejoin="round"/>
<path fill-rule="evenodd" clip-rule="evenodd" d="M20.2385 17.504C20.2385 15.1627 18.3412 13.2654 15.9998 13.2654C13.6585 13.2654 11.7612 15.1627 11.7612 17.504C11.7612 19.8454 13.6585 21.7427 15.9998 21.7427C18.3412 21.7427 20.2385 19.8454 20.2385 17.504Z" stroke="#8962F8" stroke-width="2" stroke-linecap="round" stroke-linejoin="round"/>
</svg>
