<?xml version="1.0" standalone="no"?>
<!DOCTYPE svg PUBLIC "-//W3C//DTD SVG 20010904//EN"
 "http://www.w3.org/TR/2001/REC-SVG-20010904/DTD/svg10.dtd">
<svg version="1.0" xmlns="http://www.w3.org/2000/svg"
 width="512.000000pt" height="512.000000pt" viewBox="0 0 512.000000 512.000000"
 preserveAspectRatio="xMidYMid meet">

<g transform="translate(0.000000,512.000000) scale(0.100000,-0.100000)"
fill="#000000" stroke="none">
<path d="M830 4718 c-124 -43 -214 -118 -273 -225 -60 -112 -57 -1 -57 -1933
0 -1554 2 -1773 15 -1825 48 -183 204 -323 396 -355 80 -14 174 -2 249 31 25
11 765 408 1644 882 1414 762 1607 869 1661 919 205 190 206 505 1 696 -55 51
-242 153 -1660 917 -878 473 -1623 871 -1654 884 -86 36 -233 40 -322 9z"/>
</g>
</svg>
