<svg width="22" height="24" viewBox="0 0 22 24" fill="none" xmlns="http://www.w3.org/2000/svg">
<path d="M19.72 8.00001L6.83998 0.613348C6.14303 0.210894 5.35197 6.49809e-05 4.54717 0.00227551C3.74237 0.00448603 2.95248 0.219657 2.25775 0.625933C1.56302 1.03221 0.988186 1.61512 0.591641 2.31545C0.195095 3.01578 -0.0090358 3.80859 -1.88941e-05 4.61335V19.44C-1.88941e-05 20.6494 0.480408 21.8093 1.33557 22.6644C2.19074 23.5196 3.35059 24 4.55998 24C5.36056 23.9987 6.14676 23.7872 6.83998 23.3867L19.72 16C20.4121 15.5995 20.9866 15.024 21.3861 14.3313C21.7855 13.6386 21.9958 12.853 21.9958 12.0533C21.9958 11.2537 21.7855 10.4681 21.3861 9.77543C20.9866 9.08272 20.4121 8.50723 19.72 8.10668V8.00001ZM18.3866 13.5867L5.50665 21.08C5.21796 21.2436 4.8918 21.3296 4.55998 21.3296C4.22816 21.3296 3.902 21.2436 3.61331 21.08C3.32544 20.9138 3.0864 20.6748 2.92023 20.3869C2.75405 20.099 2.66659 19.7724 2.66665 19.44V4.56001C2.66659 4.22761 2.75405 3.90105 2.92023 3.61316C3.0864 3.32528 3.32544 3.08622 3.61331 2.92001C3.90319 2.75889 4.22838 2.67187 4.55998 2.66668C4.89136 2.67348 5.21616 2.7604 5.50665 2.92001L18.3866 10.36C18.6746 10.5261 18.9138 10.7652 19.0801 11.0531C19.2463 11.341 19.3339 11.6676 19.3339 12C19.3339 12.3325 19.2463 12.6591 19.0801 12.947C18.9138 13.2349 18.6746 13.4739 18.3866 13.64V13.5867Z" fill="#8962F8"/>
</svg>
