<?xml version="1.0" standalone="no"?>
<!DOCTYPE svg PUBLIC "-//W3C//DTD SVG 20010904//EN"
 "http://www.w3.org/TR/2001/REC-SVG-20010904/DTD/svg10.dtd">
<svg version="1.0" xmlns="http://www.w3.org/2000/svg"
 width="512.000000pt" height="512.000000pt" viewBox="0 0 512.000000 512.000000"
 preserveAspectRatio="xMidYMid meet">

<g transform="translate(0.000000,512.000000) scale(0.100000,-0.100000)"
fill="#000000" stroke="none">
<path d="M984 4785 c-92 -16 -133 -30 -218 -71 -227 -112 -387 -326 -431 -579
-23 -132 -23 -3018 0 -3150 31 -174 98 -300 229 -430 73 -73 109 -100 183
-138 51 -26 128 -58 170 -70 l78 -22 1524 -3 c1338 -2 1536 -1 1614 13 172 30
301 97 428 224 126 127 194 255 224 426 23 132 23 3018 0 3150 -30 171 -98
299 -224 426 -127 126 -255 194 -426 224 -76 13 -281 15 -1584 14 -1178 -1
-1511 -4 -1567 -14z"/>
</g>
</svg>
